<svg version="1.1" class="dibsvg-svg dibsvg-live-chat" viewBox="0 0 250 250" xmlns="http://www.w3.org/2000/svg" xmlns:xlink="http://www.w3.org/1999/xlink">
	<path fill="#010101" d="M198.7,239.9c3.2-2.3,5.7-5.5,7.2-8.8l0.2-0.4l19.7-87.1l0.1-0.4l0-0.4c0.2-3.4-0.9-6.4-3.1-8.7c-3.5-3.6-8.2-4-10.1-4h-19.9c-5.5-9.6-11.5-17.6-11.8-18l-0.2-0.2c-2.7-3.1-6.7-4.9-10.9-5.9l-0.3-0.6c-2.5-5.7-1.6-25.6-0.4-36.8l0-0.3c1.1-26.6-4.6-45.9-16.9-57.4C140.2-0.6,126-0.3,123.1-0.1c-2.7-0.2-15.8-0.5-27,10C84.2,21,78.8,39.9,79.9,66.1l0,0.3c1.8,17.9,1.4,36.1-0.9,38.9l-0.4,0.5c-0.5,0.1-1.1,0.3-1.6,0.4c-8.1,2.2-15.6,15.9-19.4,23.8H35.1c-7.4,0-12,4.8-12,12.5v0.6l21.9,87.2l0.1,0.3c1.1,3.4,3.6,6.9,7.3,9.3H25.1v10h201.7v-10H198.7z M182.3,130h-52.4l22.2-15.9c6.1-0.8,18-0.9,21.8,3.4C174.5,118.4,178.3,123.5,182.3,130z M136.7,93.6l-0.1,0.1c-0.5,0.5-11.8,11.5-25.7-1c-0.7-0.9-5.3-6.8-6.9-18.3c-1.6-10.9-2-28.5,2.5-33.2c0.6-0.7,1.3-1,2.2-1c2.9,0.9,22.1,7,39.6,22.9c0.3,0.2,0.3,0.3,0.3,0.3v0c0.4,0.9-0.5,5.9-0.8,7.6l-0.1,0.5C147.7,71.7,146.9,84.3,136.7,93.6z M108.9,106.9c0.9-0.9,1.9-2.2,2.6-3.8c4.5,2.6,8.8,3.6,12.7,3.6c5.4,0,10-1.9,13.2-3.8c1.6,2.6,3.5,4.7,5.9,6.4l-18,12.8l-18.2-13.6C107.8,108,108.4,107.5,108.9,106.9z M88.9,65.6c-1-23.3,3.5-39.8,13.3-49.1c9.2-8.7,20-7.7,20.5-7.7l0.5,0.1l0.5-0.1c0.1,0,12.3-1.2,22.6,8.4c10.3,9.7,15.1,26.6,14.1,50.4c-0.3,3.3-2.4,24.4-0.3,36.3c-4.5,0.8-11.7,0.7-15.5-6.8c9.7-10.4,11-22.8,11.2-24.9c1.3-7.6,1.8-11.5-2-15c-20.4-18.6-42.4-24.6-43.3-24.9l-0.4-0.1l-0.4,0c-3.5-0.3-6.6,0.9-9,3.5c-8.8,9.4-5,36.7-4.5,39.8c1.5,10.8,5.4,17.6,7.5,20.7c0.4,2.5-0.4,3.6-1.1,4.3c-2.5,2.6-8.5,3.5-13.8,3.5C91.2,93.2,89.8,74.6,88.9,65.6z M79.4,114.8c7.7-2.1,16.2-1.7,19.2-1.5l22.3,16.7H67.6C72.2,121.4,76.9,115.5,79.4,114.8z M33.1,141.9c0.1-1.9,0.6-1.9,2-1.9h177.5c1.2,0,2.4,0.4,2.9,0.9c0.1,0.1,0.3,0.3,0.3,1l-19.3,85.5c-1.4,2.8-4.4,5.4-6.4,5.4H63c-5.2,0-7.7-3.2-8.4-5.2L33.1,141.9z"/>
	<path fill="#010101" d="M125,204.2c8.4,0,15.3-6.9,15.3-15.3s-6.9-15.3-15.3-15.3c-8.4,0-15.3,6.9-15.3,15.3S116.6,204.2,125,204.2z M125,183.6c2.9,0,5.3,2.4,5.3,5.3c0,2.9-2.4,5.3-5.3,5.3c-2.9,0-5.3-2.4-5.3-5.3C119.7,186,122.1,183.6,125,183.6z"/>
</svg>